<?xml version="1.0" encoding="UTF-8" standalone="no"?>
<!DOCTYPE svg PUBLIC "-//W3C//DTD SVG 1.1//EN"
 "http://www.w3.org/Graphics/SVG/1.1/DTD/svg11.dtd">
<!-- Generated by graphviz version 2.40.1 (20161225.0304)
 -->
<!-- Title: UmlClassDiagram Pages: 1 -->
<svg width="1239pt" height="838pt"
 viewBox="0.00 0.00 1238.63 837.60" xmlns="http://www.w3.org/2000/svg" xmlns:xlink="http://www.w3.org/1999/xlink">
<g id="graph0" class="graph" transform="scale(1 1) rotate(0) translate(4 833.6)">
<title>UmlClassDiagram</title>
<polygon fill="#ffffff" stroke="transparent" points="-4,4 -4,-833.6 1234.6291,-833.6 1234.6291,4 -4,4"/>
<!-- 0 -->
<g id="node1" class="node">
<title>0</title>
<polygon fill="#f2f2f2" stroke="#000000" points="0,-.5 0,-175.7 206.0808,-175.7 206.0808,-.5 0,-.5"/>
<text text-anchor="middle" x="103.0404" y="-159.1" font-family="Times,serif" font-size="14.00" fill="#000000">Migrations</text>
<polyline fill="none" stroke="#000000" points="0,-150.9 206.0808,-150.9 "/>
<text text-anchor="start" x="8" y="-134.3" font-family="Times,serif" font-size="14.00" fill="#000000">Public:</text>
<text text-anchor="start" x="8" y="-117.5" font-family="Times,serif" font-size="14.00" fill="#000000"> &#160;&#160;owner: address</text>
<text text-anchor="start" x="8" y="-100.7" font-family="Times,serif" font-size="14.00" fill="#000000"> &#160;&#160;last_completed_migration: uint</text>
<polyline fill="none" stroke="#000000" points="0,-92.5 206.0808,-92.5 "/>
<text text-anchor="start" x="8" y="-75.9" font-family="Times,serif" font-size="14.00" fill="#000000">Public:</text>
<text text-anchor="start" x="8" y="-59.1" font-family="Times,serif" font-size="14.00" fill="#000000"> &#160;&#160;&#160;&lt;&lt;modifier&gt;&gt; restricted()</text>
<text text-anchor="start" x="8" y="-42.3" font-family="Times,serif" font-size="14.00" fill="#000000"> &#160;&#160;&#160;constructor()</text>
<text text-anchor="start" x="8" y="-25.5" font-family="Times,serif" font-size="14.00" fill="#000000"> &#160;&#160;&#160;setCompleted(completed: uint)</text>
<text text-anchor="start" x="8" y="-8.7" font-family="Times,serif" font-size="14.00" fill="#000000"> &#160;&#160;&#160;upgrade(new_address: address)</text>
</g>
<!-- 0&#45;&gt;0 -->
<g id="edge1" class="edge">
<title>0&#45;&gt;0</title>
<path fill="none" stroke="#000000" stroke-dasharray="5,2" d="M206.3465,-47.3974C217.1548,-55.343 224.0808,-68.9105 224.0808,-88.1 224.0808,-102.4921 220.1849,-113.7219 213.6772,-121.7893"/>
<polygon fill="#000000" stroke="#000000" points="211.1528,-119.3607 206.3465,-128.8026 215.9918,-124.4187 211.1528,-119.3607"/>
</g>
<!-- 1 -->
<g id="node2" class="node">
<title>1</title>
<polygon fill="#f2f2f2" stroke="#000000" points="47.4489,-212.7 47.4489,-488.7 456.6319,-488.7 456.6319,-212.7 47.4489,-212.7"/>
<text text-anchor="middle" x="252.0404" y="-472.1" font-family="Times,serif" font-size="14.00" fill="#000000">Arithmetic</text>
<polyline fill="none" stroke="#000000" points="47.4489,-463.9 456.6319,-463.9 "/>
<text text-anchor="start" x="55.4489" y="-447.3" font-family="Times,serif" font-size="14.00" fill="#000000">Public:</text>
<text text-anchor="start" x="55.4489" y="-430.5" font-family="Times,serif" font-size="14.00" fill="#000000"> &#160;&#160;name: string</text>
<polyline fill="none" stroke="#000000" points="47.4489,-422.3 456.6319,-422.3 "/>
<text text-anchor="start" x="55.4489" y="-405.7" font-family="Times,serif" font-size="14.00" fill="#000000">Public:</text>
<text text-anchor="start" x="55.4489" y="-388.9" font-family="Times,serif" font-size="14.00" fill="#000000"> &#160;&#160;&#160;&lt;&lt;event&gt;&gt; addEvent(sum: uint256, a: uint256, b: uint256)</text>
<text text-anchor="start" x="55.4489" y="-372.1" font-family="Times,serif" font-size="14.00" fill="#000000"> &#160;&#160;&#160;&lt;&lt;event&gt;&gt; subtractEvent(substract: uint256, a: uint256, b: uint256)</text>
<text text-anchor="start" x="55.4489" y="-355.3" font-family="Times,serif" font-size="14.00" fill="#000000"> &#160;&#160;&#160;initialize(_name: string)</text>
<text text-anchor="start" x="55.4489" y="-338.5" font-family="Times,serif" font-size="14.00" fill="#000000"> &#160;&#160;&#160;add(a: uint256, b: uint256): uint256</text>
<text text-anchor="start" x="55.4489" y="-321.7" font-family="Times,serif" font-size="14.00" fill="#000000"> &#160;&#160;&#160;subtract(a: uint256, b: uint256): uint256</text>
<text text-anchor="start" x="55.4489" y="-304.9" font-family="Times,serif" font-size="14.00" fill="#000000"> &#160;&#160;&#160;div(a: uint256, b: uint256): uint256</text>
<text text-anchor="start" x="55.4489" y="-288.1" font-family="Times,serif" font-size="14.00" fill="#000000"> &#160;&#160;&#160;multiply(a: uint256, b: uint256): uint256</text>
<text text-anchor="start" x="55.4489" y="-271.3" font-family="Times,serif" font-size="14.00" fill="#000000"> &#160;&#160;&#160;doubleAdder(a: uint256, b: uint256): uint256</text>
<text text-anchor="start" x="55.4489" y="-254.5" font-family="Times,serif" font-size="14.00" fill="#000000"> &#160;&#160;&#160;plussquare(a: uint256, b: uint256): uint256</text>
<text text-anchor="start" x="55.4489" y="-237.7" font-family="Times,serif" font-size="14.00" fill="#000000"> &#160;&#160;&#160;getResult(): uint256[]</text>
<text text-anchor="start" x="55.4489" y="-220.9" font-family="Times,serif" font-size="14.00" fill="#000000"> &#160;&#160;&#160;getResultFromMap(action: string): uint256</text>
</g>
<!-- 6 -->
<g id="node7" class="node">
<title>6</title>
<polygon fill="#f2f2f2" stroke="#000000" points="548.5761,-550.9 548.5761,-625.3 739.5047,-625.3 739.5047,-550.9 548.5761,-550.9"/>
<text text-anchor="middle" x="644.0404" y="-608.7" font-family="Times,serif" font-size="14.00" fill="#000000">UpgradeableArithmeticStorage</text>
<polyline fill="none" stroke="#000000" points="548.5761,-600.5 739.5047,-600.5 "/>
<text text-anchor="middle" x="644.0404" y="-583.9" font-family="Times,serif" font-size="14.00" fill="#000000"> </text>
<polyline fill="none" stroke="#000000" points="548.5761,-575.7 739.5047,-575.7 "/>
<text text-anchor="middle" x="644.0404" y="-559.1" font-family="Times,serif" font-size="14.00" fill="#000000"> </text>
</g>
<!-- 1&#45;&gt;6 -->
<g id="edge2" class="edge">
<title>1&#45;&gt;6</title>
<path fill="none" stroke="#000000" d="M456.7714,-484.2109C459.5412,-485.8902 462.2986,-487.554 465.0404,-489.2 491.3856,-505.0156 520.3761,-521.4412 547.2123,-536.2567"/>
<polygon fill="none" stroke="#000000" points="542.3149,-545.5459 573.6728,-550.7355 552.3954,-527.1236 542.3149,-545.5459"/>
</g>
<!-- 2 -->
<g id="node3" class="node">
<title>2</title>
<polygon fill="#f2f2f2" stroke="#000000" points="474.4966,-263.1 474.4966,-438.3 845.5842,-438.3 845.5842,-263.1 474.4966,-263.1"/>
<text text-anchor="middle" x="660.0404" y="-421.7" font-family="Times,serif" font-size="14.00" fill="#000000">ArithmeticAdvancedOps</text>
<polyline fill="none" stroke="#000000" points="474.4966,-413.5 845.5842,-413.5 "/>
<text text-anchor="start" x="482.4966" y="-396.9" font-family="Times,serif" font-size="14.00" fill="#000000">Public:</text>
<text text-anchor="start" x="482.4966" y="-380.1" font-family="Times,serif" font-size="14.00" fill="#000000"> &#160;&#160;name: string</text>
<polyline fill="none" stroke="#000000" points="474.4966,-371.9 845.5842,-371.9 "/>
<text text-anchor="start" x="482.4966" y="-355.3" font-family="Times,serif" font-size="14.00" fill="#000000">Public:</text>
<text text-anchor="start" x="482.4966" y="-338.5" font-family="Times,serif" font-size="14.00" fill="#000000"> &#160;&#160;&#160;&lt;&lt;event&gt;&gt; CubeEvent(cube: uint256, a: uint256, b: uint256)</text>
<text text-anchor="start" x="482.4966" y="-321.7" font-family="Times,serif" font-size="14.00" fill="#000000"> &#160;&#160;&#160;initialize(_name: string)</text>
<text text-anchor="start" x="482.4966" y="-304.9" font-family="Times,serif" font-size="14.00" fill="#000000"> &#160;&#160;&#160;pluscube(a: uint256, b: uint256): uint256</text>
<text text-anchor="start" x="482.4966" y="-288.1" font-family="Times,serif" font-size="14.00" fill="#000000"> &#160;&#160;&#160;getResult(): uint256[]</text>
<text text-anchor="start" x="482.4966" y="-271.3" font-family="Times,serif" font-size="14.00" fill="#000000"> &#160;&#160;&#160;getResultFromMap(action: string): uint256</text>
</g>
<!-- 2&#45;&gt;6 -->
<g id="edge3" class="edge">
<title>2&#45;&gt;6</title>
<path fill="none" stroke="#000000" d="M654.128,-438.4245C652.3043,-465.4845 650.3249,-494.8536 648.6064,-520.3514"/>
<polygon fill="none" stroke="#000000" points="638.1079,-519.9771 646.5667,-550.6153 659.0604,-521.3893 638.1079,-519.9771"/>
</g>
<!-- 3 -->
<g id="node4" class="node">
<title>3</title>
<polygon fill="#f2f2f2" stroke="#000000" points="525.1051,-704.3 525.1051,-812.3 762.9757,-812.3 762.9757,-704.3 525.1051,-704.3"/>
<text text-anchor="middle" x="644.0404" y="-795.7" font-family="Times,serif" font-size="14.00" fill="#000000">ArithmeticStorage</text>
<polyline fill="none" stroke="#000000" points="525.1051,-787.5 762.9757,-787.5 "/>
<text text-anchor="start" x="533.1051" y="-770.9" font-family="Times,serif" font-size="14.00" fill="#000000">Public:</text>
<text text-anchor="start" x="533.1051" y="-754.1" font-family="Times,serif" font-size="14.00" fill="#000000"> &#160;&#160;resultArray: uint256[]</text>
<text text-anchor="start" x="533.1051" y="-737.3" font-family="Times,serif" font-size="14.00" fill="#000000"> &#160;&#160;resultmap: mapping(string=&gt;uint256)</text>
<polyline fill="none" stroke="#000000" points="525.1051,-729.1 762.9757,-729.1 "/>
<text text-anchor="middle" x="644.0404" y="-712.5" font-family="Times,serif" font-size="14.00" fill="#000000"> </text>
</g>
<!-- 4 -->
<g id="node5" class="node">
<title>4</title>
<polygon fill="#f2f2f2" stroke="#000000" points="894.6126,-313.5 894.6126,-387.9 1047.4682,-387.9 1047.4682,-313.5 894.6126,-313.5"/>
<text text-anchor="middle" x="971.0404" y="-371.3" font-family="Times,serif" font-size="14.00" fill="#000000">ArithmeticStorageProxy</text>
<polyline fill="none" stroke="#000000" points="894.6126,-363.1 1047.4682,-363.1 "/>
<text text-anchor="middle" x="971.0404" y="-346.5" font-family="Times,serif" font-size="14.00" fill="#000000"> </text>
<polyline fill="none" stroke="#000000" points="894.6126,-338.3 1047.4682,-338.3 "/>
<text text-anchor="middle" x="971.0404" y="-321.7" font-family="Times,serif" font-size="14.00" fill="#000000"> </text>
</g>
<!-- 4&#45;&gt;3 -->
<g id="edge5" class="edge">
<title>4&#45;&gt;3</title>
<path fill="none" stroke="#000000" d="M946.0564,-388.0162C924.5576,-418.0838 891.338,-460.0133 855.0404,-489.2 828.0843,-510.8752 808.1015,-498.5588 786.0404,-525.2 748.7893,-570.1849 777.6456,-600.653 748.0404,-651 741.8404,-661.5438 734.3965,-671.8434 726.3772,-681.6311"/>
<polygon fill="none" stroke="#000000" points="718.474,-674.7171 706.2963,-704.0762 734.1246,-688.7192 718.474,-674.7171"/>
</g>
<!-- 8 -->
<g id="node9" class="node">
<title>8</title>
<polygon fill="#f2f2f2" stroke="#000000" points="794.715,-525.7 794.715,-650.5 1179.3658,-650.5 1179.3658,-525.7 794.715,-525.7"/>
<text text-anchor="middle" x="987.0404" y="-633.9" font-family="Times,serif" font-size="14.00" fill="#000000">UpgradeabilityProxy</text>
<polyline fill="none" stroke="#000000" points="794.715,-625.7 1179.3658,-625.7 "/>
<text text-anchor="middle" x="987.0404" y="-609.1" font-family="Times,serif" font-size="14.00" fill="#000000"> </text>
<polyline fill="none" stroke="#000000" points="794.715,-600.9 1179.3658,-600.9 "/>
<text text-anchor="start" x="802.715" y="-584.3" font-family="Times,serif" font-size="14.00" fill="#000000">Public:</text>
<text text-anchor="start" x="802.715" y="-567.5" font-family="Times,serif" font-size="14.00" fill="#000000"> &#160;&#160;&#160;&lt;&lt;event&gt;&gt; Upgraded(version: string, implementation: address)</text>
<text text-anchor="start" x="802.715" y="-550.7" font-family="Times,serif" font-size="14.00" fill="#000000"> &#160;&#160;&#160;upgradeTo(version: string, implementation: address)</text>
<text text-anchor="start" x="802.715" y="-533.9" font-family="Times,serif" font-size="14.00" fill="#000000"> &#160;&#160;&#160;getImplementation(): address</text>
</g>
<!-- 4&#45;&gt;8 -->
<g id="edge4" class="edge">
<title>4&#45;&gt;8</title>
<path fill="none" stroke="#000000" d="M973.558,-388.0549C975.5017,-416.8944 978.2773,-458.0778 980.8054,-495.5888"/>
<polygon fill="none" stroke="#000000" points="970.3314,-496.329 982.8251,-525.555 991.2839,-494.9168 970.3314,-496.329"/>
</g>
<!-- 5 -->
<g id="node6" class="node">
<title>5</title>
<polygon fill="#f2f2f2" stroke="#000000" points="241.7385,-17.3 241.7385,-158.9 670.3423,-158.9 670.3423,-17.3 241.7385,-17.3"/>
<text text-anchor="middle" x="456.0404" y="-142.3" font-family="Times,serif" font-size="14.00" fill="#000000">ArithmeticSuperAdvanced</text>
<polyline fill="none" stroke="#000000" points="241.7385,-134.1 670.3423,-134.1 "/>
<text text-anchor="start" x="249.7385" y="-117.5" font-family="Times,serif" font-size="14.00" fill="#000000">Public:</text>
<text text-anchor="start" x="249.7385" y="-100.7" font-family="Times,serif" font-size="14.00" fill="#000000"> &#160;&#160;name: string</text>
<polyline fill="none" stroke="#000000" points="241.7385,-92.5 670.3423,-92.5 "/>
<text text-anchor="start" x="249.7385" y="-75.9" font-family="Times,serif" font-size="14.00" fill="#000000">Public:</text>
<text text-anchor="start" x="249.7385" y="-59.1" font-family="Times,serif" font-size="14.00" fill="#000000"> &#160;&#160;&#160;&lt;&lt;event&gt;&gt; QuadrapleEvent(quadraple: uint256, a: uint256, b: uint256)</text>
<text text-anchor="start" x="249.7385" y="-42.3" font-family="Times,serif" font-size="14.00" fill="#000000"> &#160;&#160;&#160;initialize(_name: string)</text>
<text text-anchor="start" x="249.7385" y="-25.5" font-family="Times,serif" font-size="14.00" fill="#000000"> &#160;&#160;&#160;plusquadraple(a: uint256, b: uint256): uint256</text>
</g>
<!-- 5&#45;&gt;1 -->
<g id="edge6" class="edge">
<title>5&#45;&gt;1</title>
<path fill="none" stroke="#000000" d="M400.8351,-159.1633C393.5671,-168.5191 385.8944,-178.3958 378.0195,-188.5327"/>
<polygon fill="none" stroke="#000000" points="369.4859,-182.4023 359.3734,-212.5351 386.0698,-195.2854 369.4859,-182.4023"/>
</g>
<!-- 5&#45;&gt;2 -->
<g id="edge7" class="edge">
<title>5&#45;&gt;2</title>
<path fill="none" stroke="#000000" d="M511.2457,-159.1633C530.3146,-183.7098 552.1691,-211.8422 573.1513,-238.8516"/>
<polygon fill="none" stroke="#000000" points="564.9738,-245.4406 591.6703,-262.6903 581.5577,-232.5574 564.9738,-245.4406"/>
</g>
<!-- 6&#45;&gt;3 -->
<g id="edge9" class="edge">
<title>6&#45;&gt;3</title>
<path fill="none" stroke="#000000" d="M644.0404,-625.4511C644.0404,-639.8846 644.0404,-657.0274 644.0404,-674.1208"/>
<polygon fill="none" stroke="#000000" points="633.5405,-674.2394 644.0404,-704.2394 654.5405,-674.2394 633.5405,-674.2394"/>
</g>
<!-- 9 -->
<g id="node10" class="node">
<title>9</title>
<polygon fill="#f2f2f2" stroke="#000000" points="780.756,-687.5 780.756,-829.1 957.3248,-829.1 957.3248,-687.5 780.756,-687.5"/>
<text text-anchor="middle" x="869.0404" y="-812.5" font-family="Times,serif" font-size="14.00" fill="#000000">UpgradeabilityStorage</text>
<polyline fill="none" stroke="#000000" points="780.756,-804.3 957.3248,-804.3 "/>
<text text-anchor="start" x="788.756" y="-787.7" font-family="Times,serif" font-size="14.00" fill="#000000">Internal:</text>
<text text-anchor="start" x="788.756" y="-770.9" font-family="Times,serif" font-size="14.00" fill="#000000"> &#160;&#160;_version: string</text>
<text text-anchor="start" x="788.756" y="-754.1" font-family="Times,serif" font-size="14.00" fill="#000000"> &#160;&#160;_implementation: address</text>
<polyline fill="none" stroke="#000000" points="780.756,-745.9 957.3248,-745.9 "/>
<text text-anchor="start" x="788.756" y="-729.3" font-family="Times,serif" font-size="14.00" fill="#000000">Public:</text>
<text text-anchor="start" x="788.756" y="-712.5" font-family="Times,serif" font-size="14.00" fill="#000000"> &#160;&#160;&#160;version(): string</text>
<text text-anchor="start" x="788.756" y="-695.7" font-family="Times,serif" font-size="14.00" fill="#000000"> &#160;&#160;&#160;implementation(): address</text>
</g>
<!-- 6&#45;&gt;9 -->
<g id="edge8" class="edge">
<title>6&#45;&gt;9</title>
<path fill="none" stroke="#000000" d="M693.4176,-625.4511C712.0328,-639.5325 734.0573,-656.1928 756.1041,-672.87"/>
<polygon fill="none" stroke="#000000" points="750.0876,-681.4845 780.3479,-691.209 762.7566,-664.7364 750.0876,-681.4845"/>
</g>
<!-- 7 -->
<g id="node8" class="node">
<title>7</title>
<polygon fill="#f2f2f2" stroke="#000000" points="975.4517,-695.9 975.4517,-820.7 1230.6291,-820.7 1230.6291,-695.9 975.4517,-695.9"/>
<text text-anchor="middle" x="1103.0404" y="-804.1" font-family="Times,serif" font-size="14.00" fill="#000000">&lt;&lt;Abstract&gt;&gt;</text>
<text text-anchor="middle" x="1103.0404" y="-787.3" font-family="Times,serif" font-size="14.00" fill="#000000">Proxy</text>
<polyline fill="none" stroke="#000000" points="975.4517,-779.1 1230.6291,-779.1 "/>
<text text-anchor="middle" x="1103.0404" y="-762.5" font-family="Times,serif" font-size="14.00" fill="#000000"> </text>
<polyline fill="none" stroke="#000000" points="975.4517,-754.3 1230.6291,-754.3 "/>
<text text-anchor="start" x="983.4517" y="-737.7" font-family="Times,serif" font-size="14.00" fill="#000000">Public:</text>
<text text-anchor="start" x="983.4517" y="-720.9" font-family="Times,serif" font-size="14.00" fill="#000000"> &#160;&#160;&#160;&lt;&lt;abstract&gt;&gt; implementation(): address</text>
<text text-anchor="start" x="983.4517" y="-704.1" font-family="Times,serif" font-size="14.00" fill="#000000"> &#160;&#160;&#160;&lt;&lt;fallback&gt;&gt; ()</text>
</g>
<!-- 8&#45;&gt;7 -->
<g id="edge10" class="edge">
<title>8&#45;&gt;7</title>
<path fill="none" stroke="#000000" d="M1029.5758,-650.5098C1034.1465,-657.2161 1038.8555,-664.1252 1043.5774,-671.0534"/>
<polygon fill="none" stroke="#000000" points="1034.938,-677.0213 1060.5101,-695.8978 1052.2909,-665.1944 1034.938,-677.0213"/>
</g>
<!-- 8&#45;&gt;9 -->
<g id="edge11" class="edge">
<title>8&#45;&gt;9</title>
<path fill="none" stroke="#000000" d="M943.7716,-650.5098C941.0522,-654.4322 938.2847,-658.4239 935.4946,-662.4483"/>
<polygon fill="none" stroke="#000000" points="926.7538,-656.627 918.2899,-687.2638 944.0118,-668.592 926.7538,-656.627"/>
</g>
</g>
</svg>
