<?xml version="1.0" encoding="UTF-8" standalone="no"?>
<!DOCTYPE svg PUBLIC "-//W3C//DTD SVG 1.1//EN"
 "http://www.w3.org/Graphics/SVG/1.1/DTD/svg11.dtd">
<!-- Generated by graphviz version 2.40.1 (20161225.0304)
 -->
<!-- Title: UmlClassDiagram Pages: 1 -->
<svg width="1286pt" height="838pt"
 viewBox="0.00 0.00 1285.63 837.60" xmlns="http://www.w3.org/2000/svg" xmlns:xlink="http://www.w3.org/1999/xlink">
<g id="graph0" class="graph" transform="scale(1 1) rotate(0) translate(4 833.6)">
<title>UmlClassDiagram</title>
<polygon fill="#ffffff" stroke="transparent" points="-4,4 -4,-833.6 1281.6291,-833.6 1281.6291,4 -4,4"/>
<!-- 0 -->
<g id="node1" class="node">
<title>0</title>
<polygon fill="#f2f2f2" stroke="#000000" points="0,-.5 0,-175.7 206.0808,-175.7 206.0808,-.5 0,-.5"/>
<text text-anchor="middle" x="103.0404" y="-159.1" font-family="Times,serif" font-size="14.00" fill="#000000">Migrations</text>
<polyline fill="none" stroke="#000000" points="0,-150.9 206.0808,-150.9 "/>
<text text-anchor="start" x="8" y="-134.3" font-family="Times,serif" font-size="14.00" fill="#000000">Public:</text>
<text text-anchor="start" x="8" y="-117.5" font-family="Times,serif" font-size="14.00" fill="#000000"> &#160;&#160;owner: address</text>
<text text-anchor="start" x="8" y="-100.7" font-family="Times,serif" font-size="14.00" fill="#000000"> &#160;&#160;last_completed_migration: uint</text>
<polyline fill="none" stroke="#000000" points="0,-92.5 206.0808,-92.5 "/>
<text text-anchor="start" x="8" y="-75.9" font-family="Times,serif" font-size="14.00" fill="#000000">Public:</text>
<text text-anchor="start" x="8" y="-59.1" font-family="Times,serif" font-size="14.00" fill="#000000"> &#160;&#160;&#160;&lt;&lt;modifier&gt;&gt; restricted()</text>
<text text-anchor="start" x="8" y="-42.3" font-family="Times,serif" font-size="14.00" fill="#000000"> &#160;&#160;&#160;constructor()</text>
<text text-anchor="start" x="8" y="-25.5" font-family="Times,serif" font-size="14.00" fill="#000000"> &#160;&#160;&#160;setCompleted(completed: uint)</text>
<text text-anchor="start" x="8" y="-8.7" font-family="Times,serif" font-size="14.00" fill="#000000"> &#160;&#160;&#160;upgrade(new_address: address)</text>
</g>
<!-- 0&#45;&gt;0 -->
<g id="edge1" class="edge">
<title>0&#45;&gt;0</title>
<path fill="none" stroke="#000000" stroke-dasharray="5,2" d="M206.3465,-47.3974C217.1548,-55.343 224.0808,-68.9105 224.0808,-88.1 224.0808,-102.4921 220.1849,-113.7219 213.6772,-121.7893"/>
<polygon fill="#000000" stroke="#000000" points="211.1528,-119.3607 206.3465,-128.8026 215.9918,-124.4187 211.1528,-119.3607"/>
</g>
<!-- 1 -->
<g id="node2" class="node">
<title>1</title>
<polygon fill="#f2f2f2" stroke="#000000" points="15.4307,-212.7 15.4307,-488.7 424.6501,-488.7 424.6501,-212.7 15.4307,-212.7"/>
<text text-anchor="middle" x="220.0404" y="-472.1" font-family="Times,serif" font-size="14.00" fill="#000000">Arithmetic</text>
<polyline fill="none" stroke="#000000" points="15.4307,-463.9 424.6501,-463.9 "/>
<text text-anchor="start" x="23.4307" y="-447.3" font-family="Times,serif" font-size="14.00" fill="#000000">Public:</text>
<text text-anchor="start" x="23.4307" y="-430.5" font-family="Times,serif" font-size="14.00" fill="#000000"> &#160;&#160;name: string</text>
<polyline fill="none" stroke="#000000" points="15.4307,-422.3 424.6501,-422.3 "/>
<text text-anchor="start" x="23.4307" y="-405.7" font-family="Times,serif" font-size="14.00" fill="#000000">Public:</text>
<text text-anchor="start" x="23.4307" y="-388.9" font-family="Times,serif" font-size="14.00" fill="#000000"> &#160;&#160;&#160;&lt;&lt;event&gt;&gt; addEvent(sum: uint256, a: uint256, b: uint256)</text>
<text text-anchor="start" x="23.4307" y="-372.1" font-family="Times,serif" font-size="14.00" fill="#000000"> &#160;&#160;&#160;&lt;&lt;event&gt;&gt; subtractEvent(substract: uint256, a: uint256, b: uint256)</text>
<text text-anchor="start" x="23.4307" y="-355.3" font-family="Times,serif" font-size="14.00" fill="#000000"> &#160;&#160;&#160;&lt;&lt;event&gt;&gt; multiplyEvent(product: uint256, a: uint256, b: uint256)</text>
<text text-anchor="start" x="23.4307" y="-338.5" font-family="Times,serif" font-size="14.00" fill="#000000"> &#160;&#160;&#160;&lt;&lt;event&gt;&gt; divisionEvent(dividend: uint256, a: uint256, b: uint256)</text>
<text text-anchor="start" x="23.4307" y="-321.7" font-family="Times,serif" font-size="14.00" fill="#000000"> &#160;&#160;&#160;initialize(_name: string)</text>
<text text-anchor="start" x="23.4307" y="-304.9" font-family="Times,serif" font-size="14.00" fill="#000000"> &#160;&#160;&#160;add(a: uint256, b: uint256): uint256</text>
<text text-anchor="start" x="23.4307" y="-288.1" font-family="Times,serif" font-size="14.00" fill="#000000"> &#160;&#160;&#160;subtract(a: uint256, b: uint256): uint256</text>
<text text-anchor="start" x="23.4307" y="-271.3" font-family="Times,serif" font-size="14.00" fill="#000000"> &#160;&#160;&#160;div(a: uint256, b: uint256): uint256</text>
<text text-anchor="start" x="23.4307" y="-254.5" font-family="Times,serif" font-size="14.00" fill="#000000"> &#160;&#160;&#160;multiply(a: uint256, b: uint256): uint256</text>
<text text-anchor="start" x="23.4307" y="-237.7" font-family="Times,serif" font-size="14.00" fill="#000000"> &#160;&#160;&#160;getResult(): uint256[]</text>
<text text-anchor="start" x="23.4307" y="-220.9" font-family="Times,serif" font-size="14.00" fill="#000000"> &#160;&#160;&#160;getResultFromMap(action: string): uint256</text>
</g>
<!-- 6 -->
<g id="node7" class="node">
<title>6</title>
<polygon fill="#f2f2f2" stroke="#000000" points="595.5761,-550.9 595.5761,-625.3 786.5047,-625.3 786.5047,-550.9 595.5761,-550.9"/>
<text text-anchor="middle" x="691.0404" y="-608.7" font-family="Times,serif" font-size="14.00" fill="#000000">UpgradeableArithmeticStorage</text>
<polyline fill="none" stroke="#000000" points="595.5761,-600.5 786.5047,-600.5 "/>
<text text-anchor="middle" x="691.0404" y="-583.9" font-family="Times,serif" font-size="14.00" fill="#000000"> </text>
<polyline fill="none" stroke="#000000" points="595.5761,-575.7 786.5047,-575.7 "/>
<text text-anchor="middle" x="691.0404" y="-559.1" font-family="Times,serif" font-size="14.00" fill="#000000"> </text>
</g>
<!-- 1&#45;&gt;6 -->
<g id="edge2" class="edge">
<title>1&#45;&gt;6</title>
<path fill="none" stroke="#000000" d="M424.7634,-484.9161C427.5295,-486.3693 430.2894,-487.7981 433.0404,-489.2 475.523,-510.8492 523.9108,-530.5965 567.2136,-546.6551"/>
<polygon fill="none" stroke="#000000" points="563.7484,-556.5674 595.5311,-556.9089 570.8984,-536.8221 563.7484,-556.5674"/>
</g>
<!-- 2 -->
<g id="node3" class="node">
<title>2</title>
<polygon fill="#f2f2f2" stroke="#000000" points="442.5113,-229.5 442.5113,-471.9 939.5695,-471.9 939.5695,-229.5 442.5113,-229.5"/>
<text text-anchor="middle" x="691.0404" y="-455.3" font-family="Times,serif" font-size="14.00" fill="#000000">ArithmeticAdvancedOps</text>
<polyline fill="none" stroke="#000000" points="442.5113,-447.1 939.5695,-447.1 "/>
<text text-anchor="start" x="450.5113" y="-430.5" font-family="Times,serif" font-size="14.00" fill="#000000">Public:</text>
<text text-anchor="start" x="450.5113" y="-413.7" font-family="Times,serif" font-size="14.00" fill="#000000"> &#160;&#160;name: string</text>
<polyline fill="none" stroke="#000000" points="442.5113,-405.5 939.5695,-405.5 "/>
<text text-anchor="start" x="450.5113" y="-388.9" font-family="Times,serif" font-size="14.00" fill="#000000">Public:</text>
<text text-anchor="start" x="450.5113" y="-372.1" font-family="Times,serif" font-size="14.00" fill="#000000"> &#160;&#160;&#160;&lt;&lt;event&gt;&gt; CubeEvent(cube: uint256, a: uint256, b: uint256)</text>
<text text-anchor="start" x="450.5113" y="-355.3" font-family="Times,serif" font-size="14.00" fill="#000000"> &#160;&#160;&#160;&lt;&lt;event&gt;&gt; doubleAdderEvent(doubleAdderResult: uint256, a: uint256, b: uint256)</text>
<text text-anchor="start" x="450.5113" y="-338.5" font-family="Times,serif" font-size="14.00" fill="#000000"> &#160;&#160;&#160;&lt;&lt;event&gt;&gt; plusSquareEvent(plussquareResult: uint256, a: uint256, b: uint256)</text>
<text text-anchor="start" x="450.5113" y="-321.7" font-family="Times,serif" font-size="14.00" fill="#000000"> &#160;&#160;&#160;initialize(_name: string)</text>
<text text-anchor="start" x="450.5113" y="-304.9" font-family="Times,serif" font-size="14.00" fill="#000000"> &#160;&#160;&#160;pluscube(a: uint256, b: uint256): uint256</text>
<text text-anchor="start" x="450.5113" y="-288.1" font-family="Times,serif" font-size="14.00" fill="#000000"> &#160;&#160;&#160;doubleAdder(a: uint256, b: uint256): uint256</text>
<text text-anchor="start" x="450.5113" y="-271.3" font-family="Times,serif" font-size="14.00" fill="#000000"> &#160;&#160;&#160;plussquare(a: uint256, b: uint256): uint256</text>
<text text-anchor="start" x="450.5113" y="-254.5" font-family="Times,serif" font-size="14.00" fill="#000000"> &#160;&#160;&#160;getResult(): uint256[]</text>
<text text-anchor="start" x="450.5113" y="-237.7" font-family="Times,serif" font-size="14.00" fill="#000000"> &#160;&#160;&#160;getResultFromMap(action: string): uint256</text>
</g>
<!-- 2&#45;&gt;6 -->
<g id="edge3" class="edge">
<title>2&#45;&gt;6</title>
<path fill="none" stroke="#000000" d="M691.0404,-472.1818C691.0404,-488.8476 691.0404,-505.4402 691.0404,-520.6446"/>
<polygon fill="none" stroke="#000000" points="680.5405,-520.7655 691.0404,-550.7655 701.5405,-520.7656 680.5405,-520.7655"/>
</g>
<!-- 3 -->
<g id="node4" class="node">
<title>3</title>
<polygon fill="#f2f2f2" stroke="#000000" points="572.1051,-704.3 572.1051,-812.3 809.9757,-812.3 809.9757,-704.3 572.1051,-704.3"/>
<text text-anchor="middle" x="691.0404" y="-795.7" font-family="Times,serif" font-size="14.00" fill="#000000">ArithmeticStorage</text>
<polyline fill="none" stroke="#000000" points="572.1051,-787.5 809.9757,-787.5 "/>
<text text-anchor="start" x="580.1051" y="-770.9" font-family="Times,serif" font-size="14.00" fill="#000000">Public:</text>
<text text-anchor="start" x="580.1051" y="-754.1" font-family="Times,serif" font-size="14.00" fill="#000000"> &#160;&#160;resultArray: uint256[]</text>
<text text-anchor="start" x="580.1051" y="-737.3" font-family="Times,serif" font-size="14.00" fill="#000000"> &#160;&#160;resultmap: mapping(string=&gt;uint256)</text>
<polyline fill="none" stroke="#000000" points="572.1051,-729.1 809.9757,-729.1 "/>
<text text-anchor="middle" x="691.0404" y="-712.5" font-family="Times,serif" font-size="14.00" fill="#000000"> </text>
</g>
<!-- 4 -->
<g id="node5" class="node">
<title>4</title>
<polygon fill="#f2f2f2" stroke="#000000" points="957.6126,-313.5 957.6126,-387.9 1110.4682,-387.9 1110.4682,-313.5 957.6126,-313.5"/>
<text text-anchor="middle" x="1034.0404" y="-371.3" font-family="Times,serif" font-size="14.00" fill="#000000">ArithmeticStorageProxy</text>
<polyline fill="none" stroke="#000000" points="957.6126,-363.1 1110.4682,-363.1 "/>
<text text-anchor="middle" x="1034.0404" y="-346.5" font-family="Times,serif" font-size="14.00" fill="#000000"> </text>
<polyline fill="none" stroke="#000000" points="957.6126,-338.3 1110.4682,-338.3 "/>
<text text-anchor="middle" x="1034.0404" y="-321.7" font-family="Times,serif" font-size="14.00" fill="#000000"> </text>
</g>
<!-- 4&#45;&gt;3 -->
<g id="edge5" class="edge">
<title>4&#45;&gt;3</title>
<path fill="none" stroke="#000000" d="M1019.9837,-387.9828C1006.3623,-419.2821 982.7893,-462.9729 949.0404,-489.2 906.4167,-522.3239 871.0662,-486.8853 833.0404,-525.2 791.8975,-566.6554 824.6456,-600.653 795.0404,-651 788.8404,-661.5438 781.3965,-671.8434 773.3772,-681.6311"/>
<polygon fill="none" stroke="#000000" points="765.474,-674.7171 753.2963,-704.0762 781.1246,-688.7192 765.474,-674.7171"/>
</g>
<!-- 8 -->
<g id="node9" class="node">
<title>8</title>
<polygon fill="#f2f2f2" stroke="#000000" points="841.715,-525.7 841.715,-650.5 1226.3658,-650.5 1226.3658,-525.7 841.715,-525.7"/>
<text text-anchor="middle" x="1034.0404" y="-633.9" font-family="Times,serif" font-size="14.00" fill="#000000">UpgradeabilityProxy</text>
<polyline fill="none" stroke="#000000" points="841.715,-625.7 1226.3658,-625.7 "/>
<text text-anchor="middle" x="1034.0404" y="-609.1" font-family="Times,serif" font-size="14.00" fill="#000000"> </text>
<polyline fill="none" stroke="#000000" points="841.715,-600.9 1226.3658,-600.9 "/>
<text text-anchor="start" x="849.715" y="-584.3" font-family="Times,serif" font-size="14.00" fill="#000000">Public:</text>
<text text-anchor="start" x="849.715" y="-567.5" font-family="Times,serif" font-size="14.00" fill="#000000"> &#160;&#160;&#160;&lt;&lt;event&gt;&gt; Upgraded(version: string, implementation: address)</text>
<text text-anchor="start" x="849.715" y="-550.7" font-family="Times,serif" font-size="14.00" fill="#000000"> &#160;&#160;&#160;upgradeTo(version: string, implementation: address)</text>
<text text-anchor="start" x="849.715" y="-533.9" font-family="Times,serif" font-size="14.00" fill="#000000"> &#160;&#160;&#160;getImplementation(): address</text>
</g>
<!-- 4&#45;&gt;8 -->
<g id="edge4" class="edge">
<title>4&#45;&gt;8</title>
<path fill="none" stroke="#000000" d="M1034.0404,-388.0549C1034.0404,-416.8225 1034.0404,-457.8724 1034.0404,-495.3081"/>
<polygon fill="none" stroke="#000000" points="1023.5405,-495.5549 1034.0404,-525.555 1044.5405,-495.555 1023.5405,-495.5549"/>
</g>
<!-- 5 -->
<g id="node6" class="node">
<title>5</title>
<polygon fill="#f2f2f2" stroke="#000000" points="241.7385,-17.3 241.7385,-158.9 670.3423,-158.9 670.3423,-17.3 241.7385,-17.3"/>
<text text-anchor="middle" x="456.0404" y="-142.3" font-family="Times,serif" font-size="14.00" fill="#000000">ArithmeticSuperAdvanced</text>
<polyline fill="none" stroke="#000000" points="241.7385,-134.1 670.3423,-134.1 "/>
<text text-anchor="start" x="249.7385" y="-117.5" font-family="Times,serif" font-size="14.00" fill="#000000">Public:</text>
<text text-anchor="start" x="249.7385" y="-100.7" font-family="Times,serif" font-size="14.00" fill="#000000"> &#160;&#160;name: string</text>
<polyline fill="none" stroke="#000000" points="241.7385,-92.5 670.3423,-92.5 "/>
<text text-anchor="start" x="249.7385" y="-75.9" font-family="Times,serif" font-size="14.00" fill="#000000">Public:</text>
<text text-anchor="start" x="249.7385" y="-59.1" font-family="Times,serif" font-size="14.00" fill="#000000"> &#160;&#160;&#160;&lt;&lt;event&gt;&gt; QuadrapleEvent(quadraple: uint256, a: uint256, b: uint256)</text>
<text text-anchor="start" x="249.7385" y="-42.3" font-family="Times,serif" font-size="14.00" fill="#000000"> &#160;&#160;&#160;initialize(_name: string)</text>
<text text-anchor="start" x="249.7385" y="-25.5" font-family="Times,serif" font-size="14.00" fill="#000000"> &#160;&#160;&#160;plusquadraple(a: uint256, b: uint256): uint256</text>
</g>
<!-- 5&#45;&gt;1 -->
<g id="edge6" class="edge">
<title>5&#45;&gt;1</title>
<path fill="none" stroke="#000000" d="M392.1754,-159.1633C383.417,-168.9089 374.1506,-179.2198 364.641,-189.8012"/>
<polygon fill="none" stroke="#000000" points="356.4533,-183.2033 344.2099,-212.5351 372.0725,-197.2405 356.4533,-183.2033"/>
</g>
<!-- 5&#45;&gt;2 -->
<g id="edge7" class="edge">
<title>5&#45;&gt;2</title>
<path fill="none" stroke="#000000" d="M519.6348,-159.1633C532.9984,-174.0965 547.5498,-190.3568 562.34,-206.8841"/>
<polygon fill="none" stroke="#000000" points="554.7371,-214.1338 582.5674,-229.4872 570.3859,-200.1297 554.7371,-214.1338"/>
</g>
<!-- 6&#45;&gt;3 -->
<g id="edge9" class="edge">
<title>6&#45;&gt;3</title>
<path fill="none" stroke="#000000" d="M691.0404,-625.4511C691.0404,-639.8846 691.0404,-657.0274 691.0404,-674.1208"/>
<polygon fill="none" stroke="#000000" points="680.5405,-674.2394 691.0404,-704.2394 701.5405,-674.2394 680.5405,-674.2394"/>
</g>
<!-- 9 -->
<g id="node10" class="node">
<title>9</title>
<polygon fill="#f2f2f2" stroke="#000000" points="827.756,-687.5 827.756,-829.1 1004.3248,-829.1 1004.3248,-687.5 827.756,-687.5"/>
<text text-anchor="middle" x="916.0404" y="-812.5" font-family="Times,serif" font-size="14.00" fill="#000000">UpgradeabilityStorage</text>
<polyline fill="none" stroke="#000000" points="827.756,-804.3 1004.3248,-804.3 "/>
<text text-anchor="start" x="835.756" y="-787.7" font-family="Times,serif" font-size="14.00" fill="#000000">Internal:</text>
<text text-anchor="start" x="835.756" y="-770.9" font-family="Times,serif" font-size="14.00" fill="#000000"> &#160;&#160;_version: string</text>
<text text-anchor="start" x="835.756" y="-754.1" font-family="Times,serif" font-size="14.00" fill="#000000"> &#160;&#160;_implementation: address</text>
<polyline fill="none" stroke="#000000" points="827.756,-745.9 1004.3248,-745.9 "/>
<text text-anchor="start" x="835.756" y="-729.3" font-family="Times,serif" font-size="14.00" fill="#000000">Public:</text>
<text text-anchor="start" x="835.756" y="-712.5" font-family="Times,serif" font-size="14.00" fill="#000000"> &#160;&#160;&#160;version(): string</text>
<text text-anchor="start" x="835.756" y="-695.7" font-family="Times,serif" font-size="14.00" fill="#000000"> &#160;&#160;&#160;implementation(): address</text>
</g>
<!-- 6&#45;&gt;9 -->
<g id="edge8" class="edge">
<title>6&#45;&gt;9</title>
<path fill="none" stroke="#000000" d="M740.4176,-625.4511C759.0328,-639.5325 781.0573,-656.1928 803.1041,-672.87"/>
<polygon fill="none" stroke="#000000" points="797.0876,-681.4845 827.3479,-691.209 809.7566,-664.7364 797.0876,-681.4845"/>
</g>
<!-- 7 -->
<g id="node8" class="node">
<title>7</title>
<polygon fill="#f2f2f2" stroke="#000000" points="1022.4517,-695.9 1022.4517,-820.7 1277.6291,-820.7 1277.6291,-695.9 1022.4517,-695.9"/>
<text text-anchor="middle" x="1150.0404" y="-804.1" font-family="Times,serif" font-size="14.00" fill="#000000">&lt;&lt;Abstract&gt;&gt;</text>
<text text-anchor="middle" x="1150.0404" y="-787.3" font-family="Times,serif" font-size="14.00" fill="#000000">Proxy</text>
<polyline fill="none" stroke="#000000" points="1022.4517,-779.1 1277.6291,-779.1 "/>
<text text-anchor="middle" x="1150.0404" y="-762.5" font-family="Times,serif" font-size="14.00" fill="#000000"> </text>
<polyline fill="none" stroke="#000000" points="1022.4517,-754.3 1277.6291,-754.3 "/>
<text text-anchor="start" x="1030.4517" y="-737.7" font-family="Times,serif" font-size="14.00" fill="#000000">Public:</text>
<text text-anchor="start" x="1030.4517" y="-720.9" font-family="Times,serif" font-size="14.00" fill="#000000"> &#160;&#160;&#160;&lt;&lt;abstract&gt;&gt; implementation(): address</text>
<text text-anchor="start" x="1030.4517" y="-704.1" font-family="Times,serif" font-size="14.00" fill="#000000"> &#160;&#160;&#160;&lt;&lt;fallback&gt;&gt; ()</text>
</g>
<!-- 8&#45;&gt;7 -->
<g id="edge10" class="edge">
<title>8&#45;&gt;7</title>
<path fill="none" stroke="#000000" d="M1076.5758,-650.5098C1081.1465,-657.2161 1085.8555,-664.1252 1090.5774,-671.0534"/>
<polygon fill="none" stroke="#000000" points="1081.938,-677.0213 1107.5101,-695.8978 1099.2909,-665.1944 1081.938,-677.0213"/>
</g>
<!-- 8&#45;&gt;9 -->
<g id="edge11" class="edge">
<title>8&#45;&gt;9</title>
<path fill="none" stroke="#000000" d="M990.7716,-650.5098C988.0522,-654.4322 985.2847,-658.4239 982.4946,-662.4483"/>
<polygon fill="none" stroke="#000000" points="973.7538,-656.627 965.2899,-687.2638 991.0118,-668.592 973.7538,-656.627"/>
</g>
</g>
</svg>
