<?xml version="1.0" encoding="UTF-8" standalone="no"?>
<!DOCTYPE svg PUBLIC "-//W3C//DTD SVG 1.1//EN"
 "http://www.w3.org/Graphics/SVG/1.1/DTD/svg11.dtd">
<!-- Generated by graphviz version 2.40.1 (20161225.0304)
 -->
<!-- Title: UmlClassDiagram Pages: 1 -->
<svg width="1763pt" height="854pt"
 viewBox="0.00 0.00 1762.94 854.40" xmlns="http://www.w3.org/2000/svg" xmlns:xlink="http://www.w3.org/1999/xlink">
<g id="graph0" class="graph" transform="scale(1 1) rotate(0) translate(4 850.4)">
<title>UmlClassDiagram</title>
<polygon fill="#ffffff" stroke="transparent" points="-4,4 -4,-850.4 1758.9351,-850.4 1758.9351,4 -4,4"/>
<!-- 0 -->
<g id="node1" class="node">
<title>0</title>
<polygon fill="#f2f2f2" stroke="#000000" points="93.5693,-.5 93.5693,-175.7 299.6501,-175.7 299.6501,-.5 93.5693,-.5"/>
<text text-anchor="middle" x="196.6097" y="-159.1" font-family="Times,serif" font-size="14.00" fill="#000000">Migrations</text>
<polyline fill="none" stroke="#000000" points="93.5693,-150.9 299.6501,-150.9 "/>
<text text-anchor="start" x="101.5693" y="-134.3" font-family="Times,serif" font-size="14.00" fill="#000000">Public:</text>
<text text-anchor="start" x="101.5693" y="-117.5" font-family="Times,serif" font-size="14.00" fill="#000000"> &#160;&#160;owner: address</text>
<text text-anchor="start" x="101.5693" y="-100.7" font-family="Times,serif" font-size="14.00" fill="#000000"> &#160;&#160;last_completed_migration: uint</text>
<polyline fill="none" stroke="#000000" points="93.5693,-92.5 299.6501,-92.5 "/>
<text text-anchor="start" x="101.5693" y="-75.9" font-family="Times,serif" font-size="14.00" fill="#000000">Public:</text>
<text text-anchor="start" x="101.5693" y="-59.1" font-family="Times,serif" font-size="14.00" fill="#000000"> &#160;&#160;&#160;&lt;&lt;modifier&gt;&gt; restricted()</text>
<text text-anchor="start" x="101.5693" y="-42.3" font-family="Times,serif" font-size="14.00" fill="#000000"> &#160;&#160;&#160;constructor()</text>
<text text-anchor="start" x="101.5693" y="-25.5" font-family="Times,serif" font-size="14.00" fill="#000000"> &#160;&#160;&#160;setCompleted(completed: uint)</text>
<text text-anchor="start" x="101.5693" y="-8.7" font-family="Times,serif" font-size="14.00" fill="#000000"> &#160;&#160;&#160;upgrade(new_address: address)</text>
</g>
<!-- 0&#45;&gt;0 -->
<g id="edge1" class="edge">
<title>0&#45;&gt;0</title>
<path fill="none" stroke="#000000" stroke-dasharray="5,2" d="M299.9158,-47.3974C310.7241,-55.343 317.6501,-68.9105 317.6501,-88.1 317.6501,-102.4921 313.7542,-113.7219 307.2465,-121.7893"/>
<polygon fill="#000000" stroke="#000000" points="304.7221,-119.3607 299.9158,-128.8026 309.5611,-124.4187 304.7221,-119.3607"/>
</g>
<!-- 1 -->
<g id="node2" class="node">
<title>1</title>
<polygon fill="#f2f2f2" stroke="#000000" points="0,-212.7 0,-488.7 409.2194,-488.7 409.2194,-212.7 0,-212.7"/>
<text text-anchor="middle" x="204.6097" y="-472.1" font-family="Times,serif" font-size="14.00" fill="#000000">Arithmetic</text>
<polyline fill="none" stroke="#000000" points="0,-463.9 409.2194,-463.9 "/>
<text text-anchor="start" x="8" y="-447.3" font-family="Times,serif" font-size="14.00" fill="#000000">Public:</text>
<text text-anchor="start" x="8" y="-430.5" font-family="Times,serif" font-size="14.00" fill="#000000"> &#160;&#160;name: string</text>
<polyline fill="none" stroke="#000000" points="0,-422.3 409.2194,-422.3 "/>
<text text-anchor="start" x="8" y="-405.7" font-family="Times,serif" font-size="14.00" fill="#000000">Public:</text>
<text text-anchor="start" x="8" y="-388.9" font-family="Times,serif" font-size="14.00" fill="#000000"> &#160;&#160;&#160;&lt;&lt;event&gt;&gt; addEvent(sum: uint256, a: uint256, b: uint256)</text>
<text text-anchor="start" x="8" y="-372.1" font-family="Times,serif" font-size="14.00" fill="#000000"> &#160;&#160;&#160;&lt;&lt;event&gt;&gt; subtractEvent(substract: uint256, a: uint256, b: uint256)</text>
<text text-anchor="start" x="8" y="-355.3" font-family="Times,serif" font-size="14.00" fill="#000000"> &#160;&#160;&#160;&lt;&lt;event&gt;&gt; multiplyEvent(product: uint256, a: uint256, b: uint256)</text>
<text text-anchor="start" x="8" y="-338.5" font-family="Times,serif" font-size="14.00" fill="#000000"> &#160;&#160;&#160;&lt;&lt;event&gt;&gt; divisionEvent(dividend: uint256, a: uint256, b: uint256)</text>
<text text-anchor="start" x="8" y="-321.7" font-family="Times,serif" font-size="14.00" fill="#000000"> &#160;&#160;&#160;initialize(_name: string)</text>
<text text-anchor="start" x="8" y="-304.9" font-family="Times,serif" font-size="14.00" fill="#000000"> &#160;&#160;&#160;add(a: uint256, b: uint256): uint256</text>
<text text-anchor="start" x="8" y="-288.1" font-family="Times,serif" font-size="14.00" fill="#000000"> &#160;&#160;&#160;subtract(a: uint256, b: uint256): uint256</text>
<text text-anchor="start" x="8" y="-271.3" font-family="Times,serif" font-size="14.00" fill="#000000"> &#160;&#160;&#160;div(a: uint256, b: uint256): uint256</text>
<text text-anchor="start" x="8" y="-254.5" font-family="Times,serif" font-size="14.00" fill="#000000"> &#160;&#160;&#160;multiply(a: uint256, b: uint256): uint256</text>
<text text-anchor="start" x="8" y="-237.7" font-family="Times,serif" font-size="14.00" fill="#000000"> &#160;&#160;&#160;getResult(): uint256[]</text>
<text text-anchor="start" x="8" y="-220.9" font-family="Times,serif" font-size="14.00" fill="#000000"> &#160;&#160;&#160;getResultFromMap(action: string): uint256</text>
</g>
<!-- 6 -->
<g id="node7" class="node">
<title>6</title>
<polygon fill="#f2f2f2" stroke="#000000" points="657.1454,-559.3 657.1454,-633.7 848.074,-633.7 848.074,-559.3 657.1454,-559.3"/>
<text text-anchor="middle" x="752.6097" y="-617.1" font-family="Times,serif" font-size="14.00" fill="#000000">UpgradeableArithmeticStorage</text>
<polyline fill="none" stroke="#000000" points="657.1454,-608.9 848.074,-608.9 "/>
<text text-anchor="middle" x="752.6097" y="-592.3" font-family="Times,serif" font-size="14.00" fill="#000000"> </text>
<polyline fill="none" stroke="#000000" points="657.1454,-584.1 848.074,-584.1 "/>
<text text-anchor="middle" x="752.6097" y="-567.5" font-family="Times,serif" font-size="14.00" fill="#000000"> </text>
</g>
<!-- 1&#45;&gt;6 -->
<g id="edge2" class="edge">
<title>1&#45;&gt;6</title>
<path fill="none" stroke="#000000" d="M409.2242,-485.1366C412.0245,-486.5204 414.8204,-487.8758 417.6097,-489.2 484.6754,-521.0405 563.5882,-546.8369 627.9734,-565.1496"/>
<polygon fill="none" stroke="#000000" points="625.1878,-575.2732 656.9017,-573.1564 630.7897,-555.0342 625.1878,-575.2732"/>
</g>
<!-- 2 -->
<g id="node3" class="node">
<title>2</title>
<polygon fill="#f2f2f2" stroke="#000000" points="427.0806,-229.5 427.0806,-471.9 924.1388,-471.9 924.1388,-229.5 427.0806,-229.5"/>
<text text-anchor="middle" x="675.6097" y="-455.3" font-family="Times,serif" font-size="14.00" fill="#000000">ArithmeticAdvancedOps</text>
<polyline fill="none" stroke="#000000" points="427.0806,-447.1 924.1388,-447.1 "/>
<text text-anchor="start" x="435.0806" y="-430.5" font-family="Times,serif" font-size="14.00" fill="#000000">Public:</text>
<text text-anchor="start" x="435.0806" y="-413.7" font-family="Times,serif" font-size="14.00" fill="#000000"> &#160;&#160;name: string</text>
<polyline fill="none" stroke="#000000" points="427.0806,-405.5 924.1388,-405.5 "/>
<text text-anchor="start" x="435.0806" y="-388.9" font-family="Times,serif" font-size="14.00" fill="#000000">Public:</text>
<text text-anchor="start" x="435.0806" y="-372.1" font-family="Times,serif" font-size="14.00" fill="#000000"> &#160;&#160;&#160;&lt;&lt;event&gt;&gt; CubeEvent(cube: uint256, a: uint256, b: uint256)</text>
<text text-anchor="start" x="435.0806" y="-355.3" font-family="Times,serif" font-size="14.00" fill="#000000"> &#160;&#160;&#160;&lt;&lt;event&gt;&gt; doubleAdderEvent(doubleAdderResult: uint256, a: uint256, b: uint256)</text>
<text text-anchor="start" x="435.0806" y="-338.5" font-family="Times,serif" font-size="14.00" fill="#000000"> &#160;&#160;&#160;&lt;&lt;event&gt;&gt; plusSquareEvent(plussquareResult: uint256, a: uint256, b: uint256)</text>
<text text-anchor="start" x="435.0806" y="-321.7" font-family="Times,serif" font-size="14.00" fill="#000000"> &#160;&#160;&#160;initialize(_name: string)</text>
<text text-anchor="start" x="435.0806" y="-304.9" font-family="Times,serif" font-size="14.00" fill="#000000"> &#160;&#160;&#160;pluscube(a: uint256, b: uint256): uint256</text>
<text text-anchor="start" x="435.0806" y="-288.1" font-family="Times,serif" font-size="14.00" fill="#000000"> &#160;&#160;&#160;doubleAdder(a: uint256, b: uint256): uint256</text>
<text text-anchor="start" x="435.0806" y="-271.3" font-family="Times,serif" font-size="14.00" fill="#000000"> &#160;&#160;&#160;plussquare(a: uint256, b: uint256): uint256</text>
<text text-anchor="start" x="435.0806" y="-254.5" font-family="Times,serif" font-size="14.00" fill="#000000"> &#160;&#160;&#160;getResult(): uint256[]</text>
<text text-anchor="start" x="435.0806" y="-237.7" font-family="Times,serif" font-size="14.00" fill="#000000"> &#160;&#160;&#160;getResultFromMap(action: string): uint256</text>
</g>
<!-- 2&#45;&gt;6 -->
<g id="edge3" class="edge">
<title>2&#45;&gt;6</title>
<path fill="none" stroke="#000000" d="M713.6585,-472.1598C719.9404,-492.2129 726.2383,-512.3171 731.8832,-530.3366"/>
<polygon fill="none" stroke="#000000" points="721.9309,-533.6915 740.919,-559.1808 741.9706,-527.4137 721.9309,-533.6915"/>
</g>
<!-- 3 -->
<g id="node4" class="node">
<title>3</title>
<polygon fill="#f2f2f2" stroke="#000000" points="772.6744,-721.1 772.6744,-829.1 1010.545,-829.1 1010.545,-721.1 772.6744,-721.1"/>
<text text-anchor="middle" x="891.6097" y="-812.5" font-family="Times,serif" font-size="14.00" fill="#000000">ArithmeticStorage</text>
<polyline fill="none" stroke="#000000" points="772.6744,-804.3 1010.545,-804.3 "/>
<text text-anchor="start" x="780.6744" y="-787.7" font-family="Times,serif" font-size="14.00" fill="#000000">Public:</text>
<text text-anchor="start" x="780.6744" y="-770.9" font-family="Times,serif" font-size="14.00" fill="#000000"> &#160;&#160;resultArray: uint256[]</text>
<text text-anchor="start" x="780.6744" y="-754.1" font-family="Times,serif" font-size="14.00" fill="#000000"> &#160;&#160;resultmap: mapping(string=&gt;uint256)</text>
<polyline fill="none" stroke="#000000" points="772.6744,-745.9 1010.545,-745.9 "/>
<text text-anchor="middle" x="891.6097" y="-729.3" font-family="Times,serif" font-size="14.00" fill="#000000"> </text>
</g>
<!-- 4 -->
<g id="node5" class="node">
<title>4</title>
<polygon fill="#f2f2f2" stroke="#000000" points="1001.1819,-50.9 1001.1819,-125.3 1154.0375,-125.3 1154.0375,-50.9 1001.1819,-50.9"/>
<text text-anchor="middle" x="1077.6097" y="-108.7" font-family="Times,serif" font-size="14.00" fill="#000000">ArithmeticStorageProxy</text>
<polyline fill="none" stroke="#000000" points="1001.1819,-100.5 1154.0375,-100.5 "/>
<text text-anchor="middle" x="1077.6097" y="-83.9" font-family="Times,serif" font-size="14.00" fill="#000000"> </text>
<polyline fill="none" stroke="#000000" points="1001.1819,-75.7 1154.0375,-75.7 "/>
<text text-anchor="middle" x="1077.6097" y="-59.1" font-family="Times,serif" font-size="14.00" fill="#000000"> </text>
</g>
<!-- 4&#45;&gt;3 -->
<g id="edge5" class="edge">
<title>4&#45;&gt;3</title>
<path fill="none" stroke="#000000" d="M1035.7414,-125.3307C1012.952,-148.0826 986.452,-179.1076 971.6097,-212.2 920.7564,-325.5822 951.0849,-366.1707 933.6097,-489.2 923.9589,-557.144 912.6298,-634.1082 904.1715,-691.0532"/>
<polygon fill="none" stroke="#000000" points="893.7683,-689.6262 899.7371,-720.8452 914.5395,-692.718 893.7683,-689.6262"/>
</g>
<!-- 7 -->
<g id="node8" class="node">
<title>7</title>
<polygon fill="#f2f2f2" stroke="#000000" points="980.4511,-254.7 980.4511,-446.7 1498.7683,-446.7 1498.7683,-254.7 980.4511,-254.7"/>
<text text-anchor="middle" x="1239.6097" y="-430.1" font-family="Times,serif" font-size="14.00" fill="#000000">OwnedUpgradeabilityProxy</text>
<polyline fill="none" stroke="#000000" points="980.4511,-421.9 1498.7683,-421.9 "/>
<text text-anchor="middle" x="1239.6097" y="-405.3" font-family="Times,serif" font-size="14.00" fill="#000000"> </text>
<polyline fill="none" stroke="#000000" points="980.4511,-397.1 1498.7683,-397.1 "/>
<text text-anchor="start" x="988.4511" y="-380.5" font-family="Times,serif" font-size="14.00" fill="#000000">Public:</text>
<text text-anchor="start" x="988.4511" y="-363.7" font-family="Times,serif" font-size="14.00" fill="#000000"> &#160;&#160;&#160;&lt;&lt;payable&gt;&gt; upgradeToAndCall(version: string, implementation: address, data: bytes)</text>
<text text-anchor="start" x="988.4511" y="-346.9" font-family="Times,serif" font-size="14.00" fill="#000000"> &#160;&#160;&#160;&lt;&lt;event&gt;&gt; ProxyOwnershipTransferred(previousOwner: address, newOwner: address)</text>
<text text-anchor="start" x="988.4511" y="-330.1" font-family="Times,serif" font-size="14.00" fill="#000000"> &#160;&#160;&#160;&lt;&lt;modifier&gt;&gt; onlyProxyOwner()</text>
<text text-anchor="start" x="988.4511" y="-313.3" font-family="Times,serif" font-size="14.00" fill="#000000"> &#160;&#160;&#160;constructor()</text>
<text text-anchor="start" x="988.4511" y="-296.5" font-family="Times,serif" font-size="14.00" fill="#000000"> &#160;&#160;&#160;proxyOwner(): address</text>
<text text-anchor="start" x="988.4511" y="-279.7" font-family="Times,serif" font-size="14.00" fill="#000000"> &#160;&#160;&#160;transferProxyOwnership(newOwner: address)</text>
<text text-anchor="start" x="988.4511" y="-262.9" font-family="Times,serif" font-size="14.00" fill="#000000"> &#160;&#160;&#160;upgradeTo(version: string, implementation: address)</text>
</g>
<!-- 4&#45;&gt;7 -->
<g id="edge4" class="edge">
<title>4&#45;&gt;7</title>
<path fill="none" stroke="#000000" d="M1100.6483,-125.4453C1117.4694,-152.7121 1141.2939,-191.3313 1164.4744,-228.9066"/>
<polygon fill="none" stroke="#000000" points="1155.6381,-234.5817 1180.3256,-254.6012 1173.5108,-223.5559 1155.6381,-234.5817"/>
</g>
<!-- 5 -->
<g id="node6" class="node">
<title>5</title>
<polygon fill="#f2f2f2" stroke="#000000" points="335.3078,-17.3 335.3078,-158.9 763.9116,-158.9 763.9116,-17.3 335.3078,-17.3"/>
<text text-anchor="middle" x="549.6097" y="-142.3" font-family="Times,serif" font-size="14.00" fill="#000000">ArithmeticSuperAdvanced</text>
<polyline fill="none" stroke="#000000" points="335.3078,-134.1 763.9116,-134.1 "/>
<text text-anchor="start" x="343.3078" y="-117.5" font-family="Times,serif" font-size="14.00" fill="#000000">Public:</text>
<text text-anchor="start" x="343.3078" y="-100.7" font-family="Times,serif" font-size="14.00" fill="#000000"> &#160;&#160;name: string</text>
<polyline fill="none" stroke="#000000" points="335.3078,-92.5 763.9116,-92.5 "/>
<text text-anchor="start" x="343.3078" y="-75.9" font-family="Times,serif" font-size="14.00" fill="#000000">Public:</text>
<text text-anchor="start" x="343.3078" y="-59.1" font-family="Times,serif" font-size="14.00" fill="#000000"> &#160;&#160;&#160;&lt;&lt;event&gt;&gt; QuadrapleEvent(quadraple: uint256, a: uint256, b: uint256)</text>
<text text-anchor="start" x="343.3078" y="-42.3" font-family="Times,serif" font-size="14.00" fill="#000000"> &#160;&#160;&#160;initialize(_name: string)</text>
<text text-anchor="start" x="343.3078" y="-25.5" font-family="Times,serif" font-size="14.00" fill="#000000"> &#160;&#160;&#160;plusquadraple(a: uint256, b: uint256): uint256</text>
</g>
<!-- 5&#45;&gt;1 -->
<g id="edge6" class="edge">
<title>5&#45;&gt;1</title>
<path fill="none" stroke="#000000" d="M456.2477,-159.1633C441.6516,-170.2733 426.0904,-182.1179 410.1376,-194.2605"/>
<polygon fill="none" stroke="#000000" points="403.6407,-186.01 386.1287,-212.5351 416.3598,-202.7201 403.6407,-186.01"/>
</g>
<!-- 5&#45;&gt;2 -->
<g id="edge7" class="edge">
<title>5&#45;&gt;2</title>
<path fill="none" stroke="#000000" d="M583.7071,-159.1633C590.2209,-172.7389 597.261,-187.4114 604.4452,-202.3841"/>
<polygon fill="none" stroke="#000000" points="595.0051,-206.9818 617.4497,-229.4872 613.9384,-197.8973 595.0051,-206.9818"/>
</g>
<!-- 6&#45;&gt;3 -->
<g id="edge9" class="edge">
<title>6&#45;&gt;3</title>
<path fill="none" stroke="#000000" d="M781.7487,-633.9404C795.9773,-652.2227 813.6599,-674.943 830.6511,-696.7747"/>
<polygon fill="none" stroke="#000000" points="822.608,-703.5361 849.3198,-720.762 839.1804,-690.6382 822.608,-703.5361"/>
</g>
<!-- 11 -->
<g id="node12" class="node">
<title>11</title>
<polygon fill="#f2f2f2" stroke="#000000" points="1134.3253,-704.3 1134.3253,-845.9 1310.8941,-845.9 1310.8941,-704.3 1134.3253,-704.3"/>
<text text-anchor="middle" x="1222.6097" y="-829.3" font-family="Times,serif" font-size="14.00" fill="#000000">UpgradeabilityStorage</text>
<polyline fill="none" stroke="#000000" points="1134.3253,-821.1 1310.8941,-821.1 "/>
<text text-anchor="start" x="1142.3253" y="-804.5" font-family="Times,serif" font-size="14.00" fill="#000000">Internal:</text>
<text text-anchor="start" x="1142.3253" y="-787.7" font-family="Times,serif" font-size="14.00" fill="#000000"> &#160;&#160;_version: string</text>
<text text-anchor="start" x="1142.3253" y="-770.9" font-family="Times,serif" font-size="14.00" fill="#000000"> &#160;&#160;_implementation: address</text>
<polyline fill="none" stroke="#000000" points="1134.3253,-762.7 1310.8941,-762.7 "/>
<text text-anchor="start" x="1142.3253" y="-746.1" font-family="Times,serif" font-size="14.00" fill="#000000">Public:</text>
<text text-anchor="start" x="1142.3253" y="-729.3" font-family="Times,serif" font-size="14.00" fill="#000000"> &#160;&#160;&#160;version(): string</text>
<text text-anchor="start" x="1142.3253" y="-712.5" font-family="Times,serif" font-size="14.00" fill="#000000"> &#160;&#160;&#160;implementation(): address</text>
</g>
<!-- 6&#45;&gt;11 -->
<g id="edge8" class="edge">
<title>6&#45;&gt;11</title>
<path fill="none" stroke="#000000" d="M848.2877,-632.8576C922.8695,-661.1987 1026.7531,-700.6745 1106.1648,-730.8509"/>
<polygon fill="none" stroke="#000000" points="1102.4416,-740.6686 1134.2149,-741.51 1109.9012,-721.0382 1102.4416,-740.6686"/>
</g>
<!-- 9 -->
<g id="node10" class="node">
<title>9</title>
<polygon fill="#f2f2f2" stroke="#000000" points="980.767,-525.7 980.767,-667.3 1352.4524,-667.3 1352.4524,-525.7 980.767,-525.7"/>
<text text-anchor="middle" x="1166.6097" y="-650.7" font-family="Times,serif" font-size="14.00" fill="#000000">UpgradeabilityOwnerStorage</text>
<polyline fill="none" stroke="#000000" points="980.767,-642.5 1352.4524,-642.5 "/>
<text text-anchor="start" x="988.767" y="-625.9" font-family="Times,serif" font-size="14.00" fill="#000000">Private:</text>
<text text-anchor="start" x="988.767" y="-609.1" font-family="Times,serif" font-size="14.00" fill="#000000"> &#160;&#160;_upgradeabilityOwner: address</text>
<polyline fill="none" stroke="#000000" points="980.767,-600.9 1352.4524,-600.9 "/>
<text text-anchor="start" x="988.767" y="-584.3" font-family="Times,serif" font-size="14.00" fill="#000000">Internal:</text>
<text text-anchor="start" x="988.767" y="-567.5" font-family="Times,serif" font-size="14.00" fill="#000000"> &#160;&#160;&#160;setUpgradeabilityOwner(newUpgradeabilityOwner: address)</text>
<text text-anchor="start" x="988.767" y="-550.7" font-family="Times,serif" font-size="14.00" fill="#000000">Public:</text>
<text text-anchor="start" x="988.767" y="-533.9" font-family="Times,serif" font-size="14.00" fill="#000000"> &#160;&#160;&#160;upgradeabilityOwner(): address</text>
</g>
<!-- 7&#45;&gt;9 -->
<g id="edge10" class="edge">
<title>7&#45;&gt;9</title>
<path fill="none" stroke="#000000" d="M1211.0724,-446.7888C1206.1987,-463.199 1201.1259,-480.2796 1196.225,-496.7816"/>
<polygon fill="none" stroke="#000000" points="1186.1446,-493.8428 1187.669,-525.5906 1206.2756,-499.8215 1186.1446,-493.8428"/>
</g>
<!-- 10 -->
<g id="node11" class="node">
<title>10</title>
<polygon fill="#f2f2f2" stroke="#000000" points="1370.2843,-525.7 1370.2843,-667.3 1754.9351,-667.3 1754.9351,-525.7 1370.2843,-525.7"/>
<text text-anchor="middle" x="1562.6097" y="-650.7" font-family="Times,serif" font-size="14.00" fill="#000000">UpgradeabilityProxy</text>
<polyline fill="none" stroke="#000000" points="1370.2843,-642.5 1754.9351,-642.5 "/>
<text text-anchor="middle" x="1562.6097" y="-625.9" font-family="Times,serif" font-size="14.00" fill="#000000"> </text>
<polyline fill="none" stroke="#000000" points="1370.2843,-617.7 1754.9351,-617.7 "/>
<text text-anchor="start" x="1378.2843" y="-601.1" font-family="Times,serif" font-size="14.00" fill="#000000">Internal:</text>
<text text-anchor="start" x="1378.2843" y="-584.3" font-family="Times,serif" font-size="14.00" fill="#000000"> &#160;&#160;&#160;_upgradeTo(version: string, implementation: address)</text>
<text text-anchor="start" x="1378.2843" y="-567.5" font-family="Times,serif" font-size="14.00" fill="#000000">Public:</text>
<text text-anchor="start" x="1378.2843" y="-550.7" font-family="Times,serif" font-size="14.00" fill="#000000"> &#160;&#160;&#160;&lt;&lt;event&gt;&gt; Upgraded(version: string, implementation: address)</text>
<text text-anchor="start" x="1378.2843" y="-533.9" font-family="Times,serif" font-size="14.00" fill="#000000"> &#160;&#160;&#160;getImplementation(): address</text>
</g>
<!-- 7&#45;&gt;10 -->
<g id="edge11" class="edge">
<title>7&#45;&gt;10</title>
<path fill="none" stroke="#000000" d="M1365.8777,-446.7888C1392.0244,-466.6861 1419.4662,-487.5691 1445.2775,-507.2113"/>
<polygon fill="none" stroke="#000000" points="1439.1973,-515.7788 1469.4294,-525.5906 1451.9145,-499.0674 1439.1973,-515.7788"/>
</g>
<!-- 8 -->
<g id="node9" class="node">
<title>8</title>
<polygon fill="#f2f2f2" stroke="#000000" points="1435.021,-712.7 1435.021,-837.5 1690.1984,-837.5 1690.1984,-712.7 1435.021,-712.7"/>
<text text-anchor="middle" x="1562.6097" y="-820.9" font-family="Times,serif" font-size="14.00" fill="#000000">&lt;&lt;Abstract&gt;&gt;</text>
<text text-anchor="middle" x="1562.6097" y="-804.1" font-family="Times,serif" font-size="14.00" fill="#000000">Proxy</text>
<polyline fill="none" stroke="#000000" points="1435.021,-795.9 1690.1984,-795.9 "/>
<text text-anchor="middle" x="1562.6097" y="-779.3" font-family="Times,serif" font-size="14.00" fill="#000000"> </text>
<polyline fill="none" stroke="#000000" points="1435.021,-771.1 1690.1984,-771.1 "/>
<text text-anchor="start" x="1443.021" y="-754.5" font-family="Times,serif" font-size="14.00" fill="#000000">Public:</text>
<text text-anchor="start" x="1443.021" y="-737.7" font-family="Times,serif" font-size="14.00" fill="#000000"> &#160;&#160;&#160;&lt;&lt;abstract&gt;&gt; implementation(): address</text>
<text text-anchor="start" x="1443.021" y="-720.9" font-family="Times,serif" font-size="14.00" fill="#000000"> &#160;&#160;&#160;&lt;&lt;fallback&gt;&gt; ()</text>
</g>
<!-- 10&#45;&gt;8 -->
<g id="edge12" class="edge">
<title>10&#45;&gt;8</title>
<path fill="none" stroke="#000000" d="M1562.6097,-667.344C1562.6097,-672.2333 1562.6097,-677.1998 1562.6097,-682.1813"/>
<polygon fill="none" stroke="#000000" points="1552.1098,-682.4378 1562.6097,-712.4379 1573.1098,-682.4379 1552.1098,-682.4378"/>
</g>
<!-- 10&#45;&gt;11 -->
<g id="edge13" class="edge">
<title>10&#45;&gt;11</title>
<path fill="none" stroke="#000000" d="M1427.7444,-667.344C1398.0286,-682.9535 1366.8152,-699.3497 1337.9538,-714.5104"/>
<polygon fill="none" stroke="#000000" points="1332.8047,-705.3546 1311.1289,-728.6014 1342.5705,-723.9458 1332.8047,-705.3546"/>
</g>
</g>
</svg>
